HIERARCHY
ROOT Hips
{
	OFFSET 0.000000 0.000000 0.000000
	CHANNELS 6 Xposition Yposition Zposition Zrotation Yrotation Xrotation 
	JOINT LHipJoint
	{
		OFFSET 0.000000 0.000000 0.000000
		CHANNELS 3 Zrotation Yrotation Xrotation
		JOINT LeftUpLeg
		{
			OFFSET 1.363060 -1.794630 0.839290
			CHANNELS 3 Zrotation Yrotation Xrotation
			JOINT LeftLeg
			{
				OFFSET 2.448110 -6.726130 0.000000
				CHANNELS 3 Zrotation Yrotation Xrotation
				JOINT LeftFoot
				{
					OFFSET 2.562200 -7.039590 0.000000
					CHANNELS 3 Zrotation Yrotation Xrotation
					JOINT LeftToeBase
					{
						OFFSET 0.157640 -0.433110 2.322550
						CHANNELS 3 Zrotation Yrotation Xrotation
						End Site
						{
							OFFSET 0.000000 0.000000 0.000000
						}
					}
				}
			}
		}
	}
	JOINT RHipJoint
	{
		OFFSET 0.000000 0.000000 0.000000
		CHANNELS 3 Zrotation Yrotation Xrotation
		JOINT RightUpLeg
		{
			OFFSET -1.305520 -1.794630 0.839290
			CHANNELS 3 Zrotation Yrotation Xrotation
			JOINT RightLeg
			{
				OFFSET -2.542530 -6.985550 0.000000
				CHANNELS 3 Zrotation Yrotation Xrotation
				JOINT RightFoot
				{
					OFFSET -2.568260 -7.056230 0.000000
					CHANNELS 3 Zrotation Yrotation Xrotation
					JOINT RightToeBase
					{
						OFFSET -0.164730 -0.452590 2.363150
						CHANNELS 3 Zrotation Yrotation Xrotation
						End Site
						{
							OFFSET 0.000000 0.000000 0.000000
						}
					}
				}
			}
		}
	}
	JOINT LowerBack
	{
		OFFSET 0.000000 0.000000 0.000000
		CHANNELS 3 Zrotation Yrotation Xrotation
		JOINT Spine
		{
			OFFSET 0.028270 2.035590 -0.193380
			CHANNELS 3 Zrotation Yrotation Xrotation
			JOINT Spine1
			{
				OFFSET 0.056720 2.048850 -0.042750
				CHANNELS 3 Zrotation Yrotation Xrotation
				JOINT Neck
				{
					OFFSET 0.000000 0.000000 0.000000
					CHANNELS 3 Zrotation Yrotation Xrotation
					JOINT Neck1
					{
						OFFSET -0.054170 1.746240 0.172020
						CHANNELS 3 Zrotation Yrotation Xrotation
						JOINT Head
						{
							OFFSET 0.104070 1.761360 -0.123970
							CHANNELS 3 Zrotation Yrotation Xrotation
							End Site
							{
								OFFSET 0.000000 0.000000 0.000000
							}
						}
					}
				}
				JOINT LeftShoulder
				{
					OFFSET 0.000000 0.000000 0.000000
					CHANNELS 3 Zrotation Yrotation Xrotation
					JOINT LeftArm
					{
						OFFSET 3.362410 1.200890 -0.311210
						CHANNELS 3 Zrotation Yrotation Xrotation
						JOINT LeftForeArm
						{
							OFFSET 4.983000 -0.000000 -0.000000
							CHANNELS 3 Zrotation Yrotation Xrotation
							JOINT LeftHand
							{
								OFFSET 3.483560 -0.000000 -0.000000
								CHANNELS 3 Zrotation Yrotation Xrotation
								JOINT LeftFingerBase
								{
									OFFSET 0.000000 0.000000 0.000000
									CHANNELS 3 Zrotation Yrotation Xrotation
									JOINT LeftHandIndex1
									{
										OFFSET 0.715260 -0.000000 -0.000000
										CHANNELS 3 Zrotation Yrotation Xrotation
										End Site
										{
											OFFSET 0.000000 0.000000 0.000000
										}
									}
								}
								JOINT LThumb
								{
									OFFSET 0.000000 0.000000 0.000000
									CHANNELS 3 Zrotation Yrotation Xrotation
									End Site
									{
										OFFSET 0.000000 0.000000 0.000000
									}
								}
							}
						}
					}
				}
				JOINT RightShoulder
				{
					OFFSET 0.000000 0.000000 0.000000
					CHANNELS 3 Zrotation Yrotation Xrotation
					JOINT RightArm
					{
						OFFSET -3.136600 1.374050 -0.404650
						CHANNELS 3 Zrotation Yrotation Xrotation
						JOINT RightForeArm
						{
							OFFSET -5.241900 -0.000000 -0.000000
							CHANNELS 3 Zrotation Yrotation Xrotation
							JOINT RightHand
							{
								OFFSET -3.444170 -0.000000 -0.000000
								CHANNELS 3 Zrotation Yrotation Xrotation
								JOINT RightFingerBase
								{
									OFFSET 0.000000 0.000000 0.000000
									CHANNELS 3 Zrotation Yrotation Xrotation
									JOINT RightHandIndex1
									{
										OFFSET -0.622530 -0.000000 -0.000000
										CHANNELS 3 Zrotation Yrotation Xrotation
										End Site
										{
											OFFSET 0.000000 0.000000 0.000000
										}
									}
								}
								JOINT RThumb
								{
									OFFSET 0.000000 0.000000 0.000000
									CHANNELS 3 Zrotation Yrotation Xrotation
									End Site
									{
										OFFSET 0.000000 0.000000 0.000000
									}
								}
							}
						}
					}
				}
			}
		}
	}
}
MOTION
Frames: 5
Frame Time: 0.033333
0.052553 17.323443 0.052553 0.099867 -22.698196 4.649378 -3.330302 14.998740 13.819293 -14.958758 -18.219629 -14.066005 27.168215 -21.982223 -29.886316 -5.345545 10.214387 84.884128 0.000000 0.000000 0.000000 2.379662 -32.378033 -12.029169 50.679444 14.955899 -3.007567 -28.183378 6.071001 38.623674 -0.945107 11.267214 -16.147340 0.000000 0.000000 0.000000 -0.185969 6.108874 4.447554 -7.302924 5.220729 15.681169 6.449534 4.793288 -16.371632 12.507964 -1.096848 -10.636784 -2.942141 -0.270625 -7.389215 0.000000 0.000000 0.000000 -3.837548 14.140931 16.977618 -77.887858 -5.786785 -28.462718 -143.248376 -68.713748 178.494338 9.168667 -5.841034 -0.781066 9.359911 -5.722669 -0.000000 0.000000 0.000000 0.000000 0.000000 0.000000 0.000000 -0.997386 -14.693651 2.578824 57.837988 12.266512 18.661926 49.388595 61.554999 0.117118 0.702795 3.542410 0.058521 0.702723 3.543758 0.000000 0.000000 0.000000 0.000000 0.000000 0.000000 0.000000 
0.059045 17.351712 0.208426 0.146355 -22.565203 4.527002 -2.227636 14.804195 13.235624 -16.894617 -17.975262 -12.481564 26.962837 -21.913858 -29.231284 -5.303584 9.807956 83.356805 0.000000 0.000000 0.000000 1.527631 -31.842525 -12.218926 49.827513 13.999977 -2.623503 -26.711810 5.112952 38.473930 -0.933557 11.447371 -17.646925 0.000000 0.000000 0.000000 -0.354756 5.996354 5.139678 -7.223918 5.102282 14.393399 6.238782 4.685936 -15.404555 12.186237 -0.988381 -10.039874 -2.496252 -0.183393 -7.556882 0.000000 0.000000 0.000000 -3.412859 13.729977 17.160580 -78.104552 -5.939613 -28.537365 -143.265985 -68.870269 178.479805 9.368017 -5.999869 -0.788636 9.562242 -5.879886 -0.000000 0.000000 0.000000 0.000000 0.000000 0.000000 0.000000 -1.338368 -14.645279 2.421062 58.567489 12.582875 17.873788 50.294651 60.775131 0.093220 0.453611 2.536221 0.046606 0.453981 2.537086 0.000000 0.000000 0.000000 0.000000 0.000000 0.000000 0.000000 
0.067788 17.381800 0.363705 0.177023 -22.361666 4.397876 -1.160274 14.593257 12.597040 -18.753340 -17.628093 -10.909376 26.592219 -21.806864 -28.524487 -5.137632 9.463327 81.798189 0.000000 0.000000 0.000000 0.684857 -31.203017 -12.389559 48.880263 13.034797 -2.256109 -25.138782 4.095783 38.248316 -0.897830 11.566455 -19.078986 0.000000 0.000000 0.000000 -0.509036 5.860811 5.835788 -7.109419 4.962754 13.138975 6.019475 4.563651 -14.455354 11.860968 -0.884322 -9.462119 -2.058880 -0.099284 -7.696300 0.000000 0.000000 0.000000 -2.985114 13.320247 17.341694 -78.324195 -6.092070 -28.603805 -143.281209 -69.032638 178.465183 9.569039 -6.160680 -0.796254 9.766316 -6.039011 -0.000000 0.000000 0.000000 0.000000 0.000000 0.000000 0.000000 -1.695374 -14.614049 2.253757 59.283978 12.921808 17.064507 51.213625 59.930133 0.077465 0.195621 1.489296 0.038748 0.196509 1.489740 0.000000 0.000000 0.000000 0.000000 0.000000 0.000000 0.000000 
0.078732 17.413260 0.517988 0.037057 -21.322456 3.800334 0.072505 14.193295 12.008794 -20.547911 -17.012864 -8.937817 25.761109 -21.714311 -27.919354 -4.668877 9.220823 80.353570 0.000000 0.000000 0.000000 -0.665730 -29.493712 -13.661534 47.611614 10.413002 -0.574147 -22.870120 2.183811 37.219786 -0.491509 11.000635 -20.757151 0.000000 0.000000 0.000000 -0.417985 5.408160 7.115623 -6.827158 4.528066 11.970476 5.619030 4.184655 -13.684835 11.655743 -0.778983 -8.865214 -1.571484 -0.008711 -7.835001 0.000000 0.000000 0.000000 -2.386092 12.960776 17.534679 -78.530937 -6.174026 -28.677925 -143.219493 -69.177913 178.447451 9.781805 -6.325528 -0.805530 9.982589 -6.201745 -0.000000 0.000000 0.000000 0.000000 0.000000 0.000000 0.000000 -2.595184 -15.013254 1.712369 60.402418 14.076978 14.011742 54.213421 54.658678 0.065415 -0.273068 -0.303586 0.032725 -0.271842 -0.303705 0.000000 0.000000 0.000000 0.000000 0.000000 0.000000 0.000000 
0.091313 17.445684 0.670911 -0.149102 -20.024085 3.138610 1.253209 13.665080 11.341345 -22.184171 -16.280185 -6.927134 24.769938 -21.593661 -27.267213 -4.126971 9.045700 78.902324 0.000000 0.000000 0.000000 -2.064147 -27.343183 -15.051653 46.072167 7.499872 1.312067 -20.234166 0.065418 35.784700 -0.064982 10.293900 -22.351086 0.000000 0.000000 0.000000 -0.258370 4.868475 8.470617 -6.510397 4.021454 10.867408 5.237867 3.747274 -13.032903 11.442707 -0.682680 -8.248831 -1.107746 0.075237 -7.920999 0.000000 0.000000 0.000000 -1.783783 12.593385 17.764167 -78.746890 -6.219921 -28.735292 -143.152246 -69.326187 178.429871 9.996566 -6.492796 -0.814733 10.200913 -6.366830 -0.000000 0.000000 0.000000 0.000000 0.000000 0.000000 0.000000 -3.495930 -15.529287 1.013518 61.343836 15.425507 10.958508 56.692277 48.579993 0.094282 -0.821062 -2.313930 0.047149 -0.820843 -2.314434 0.000000 0.000000 0.000000 0.000000 0.000000 0.000000 0.000000 
